<svg width="24" height="24" viewBox="0 0 24 24" fill="none" xmlns="http://www.w3.org/2000/svg">
	<path
		d="M9.75 5.61111C9.75 4.44518 10.7574 3.5 12 3.5C13.2426 3.5 14.25 4.44518 14.25 5.61111C16.8827 6.77914 18.6135 9.21504 18.75 11.9444V15.1111C18.9217 16.442 19.7567 17.6172 21 18.2778H3C4.24325 17.6172 5.07831 16.442 5.25 15.1111V11.9444C5.38654 9.21504 7.11731 6.77914 9.75 5.61111"
		stroke="#111520"
		stroke-width="2"
		stroke-linecap="round"
		stroke-linejoin="round"
	/>
	<path
		d="M9.75 5.61111C9.75 4.44518 10.7574 3.5 12 3.5C13.2426 3.5 14.25 4.44518 14.25 5.61111C16.8827 6.77914 18.6135 9.21504 18.75 11.9444V15.1111C18.9217 16.442 19.7567 17.6172 21 18.2778H3C4.24325 17.6172 5.07831 16.442 5.25 15.1111V11.9444C5.38654 9.21504 7.11731 6.77914 9.75 5.61111"
		stroke="white"
		stroke-opacity="0.2"
		stroke-width="2"
		stroke-linecap="round"
		stroke-linejoin="round"
	/>
	<path
		d="M8.625 18.2773V19.3329C8.625 21.0818 10.136 22.4996 12 22.4996C13.864 22.4996 15.375 21.0818 15.375 19.3329V18.2773"
		stroke="#111520"
		stroke-width="2"
		stroke-linecap="round"
		stroke-linejoin="round"
	/>
	<path
		d="M8.625 18.2773V19.3329C8.625 21.0818 10.136 22.4996 12 22.4996C13.864 22.4996 15.375 21.0818 15.375 19.3329V18.2773"
		stroke="white"
		stroke-opacity="0.2"
		stroke-width="2"
		stroke-linecap="round"
		stroke-linejoin="round"
	/>
</svg>
